SORRY! NO ENGLISH SUBS FOR THIS MOVIE AT THIS MOMENT.


Et si on vivait tous ensemble? AKA All Together (2011)
    
http://www.imdb.com/title/tt1674057/

Director:  Stéphane Robelin

Writers: Stéphane Robelin


Cast:

Guy Bedos
Daniel Brühl
Geraldine Chaplin
Jane Fonda
Claude Rich
Pierre Richard


Synopsys:

Annie, Jean, Claude, Albert and Jeanne have been friends for over forty years. But they are growing old and old age tends to be synonymous with reduced autonomy, loss of memory, illness, retirement home and, worst of all, separation. One day, one of the five friends suggests to say no to isolation and loneliness: what if they lived together?


Screenshots:
   
http://bayimg.com/BAgFOAaec
 
http://bayimg.com/CAGfiAaeC
 
http://bayimg.com/cAgfkaAec
 
http://bayimg.com/CAgFMAaec
 
http://bayimg.com/CaGfOAAec


Technical Specs:

General
Unique ID                                : 12055044656988827369155365290746342674 (0x911B7970CAA1F22532A1867F7606D12)
Complete name                            : Et.Si.On.Vivait.Tous.Ensemble.2011.FRENCH.720p.BluRay.x264-FUEL.mkv
Format                                   : Matroska
Format version                           : Version 2
File size                                : 3.80 GiB
Duration                                 : 1h 35mn
Overall bit rate mode                    : Variable
Overall bit rate                         : 5 670 Kbps
Encoded date                             : UTC 2012-10-31 17:43:21
Writing application                      : mkvmerge v5.0.1 ('Es ist Sommer') built on Oct 13 2011 11:39:35
Writing library                          : libebml v1.2.2 + libmatroska v1.3.0

Video
ID                                       : 1
Format                                   : AVC
Format/Info                              : Advanced Video Codec
Format profile                           : High@L4.1
Format settings, CABAC                   : Yes
Format settings, ReFrames                : 4 frames
Codec ID                                 : V_MPEG4/ISO/AVC
Duration                                 : 1h 35mn
Bit rate mode                            : Variable
Bit rate                                 : 5 218 Kbps
Maximum bit rate                         : 40.0 Mbps
Width                                    : 1 280 pixels
Height                                   : 692 pixels
Display aspect ratio                     : 1.850
Frame rate mode                          : Variable
Frame rate                               : 24.000 fps
Color space                              : YUV
Chroma subsampling                       : 4:2:0
Bit depth                                : 8 bits
Scan type                                : Progressive
Bits/(Pixel*Frame)                       : 0.245
Stream size                              : 3.42 GiB (90%)
Writing library                          : x264 core 112
Encoding settings                        : cabac=1 / ref=5 / deblock=1:-3:-3 / analyse=0x3:0x113 / me=umh / subme=9 / psy=1 / psy_rd=1,00:0,00 / mixed_ref=1 / me_range=32 / chroma_me=1 / trellis=1 / 8x8dct=1 / cqm=0 / deadzone=21,11 / fast_pskip=0 / chroma_qp_offset=-2 / threads=6 / sliced_threads=0 / nr=0 / decimate=1 / interlaced=0 / constrained_intra=0 / bframes=16 / b_pyramid=1 / b_adapt=1 / b_bias=0 / direct=3 / weightb=1 / open_gop=0 / weightp=2 / keyint=250 / keyint_min=24 / scenecut=40 / intra_refresh=0 / rc_lookahead=40 / rc=2pass / mbtree=1 / bitrate=5218 / ratetol=1,0 / qcomp=0,60 / qpmin=10 / qpmax=51 / qpstep=4 / cplxblur=20,0 / qblur=0,5 / ip_ratio=1,40 / aq=1:1,0
Language                                 : French
Default                                  : Yes
Forced                                   : No

Audio
ID                                       : 2
Format                                   : AC-3
Format/Info                              : Audio Coding 3
Mode extension                           : CM (complete main)
Codec ID                                 : A_AC3
Duration                                 : 1h 35mn
Bit rate mode                            : Constant
Bit rate                                 : 448 Kbps
Channel(s)                               : 6 channels
Channel positions                        : Front: L C R, Side: L R, LFE
Sampling rate                            : 48.0 KHz
Bit depth                                : 16 bits
Compression mode                         : Lossy
Stream size                              : 307 MiB (8%)
Language                                 : French
Default                                  : Yes
Forced                                   : No

Menu
00:00:00.000                             : fr:
00:04:44.750                             : fr:
00:12:27.333                             : fr:
00:22:35.083                             : fr:
00:30:16.875                             : fr:
00:43:08.708                             : fr:
00:53:15.416                             : fr:
01:04:14.041                             : fr:
01:22:31.833                             : fr:
01:31:15.708                             : fr:
01:35:50.000                             : fr: